Coordinates																															
version=1																															
nRows=15																															
nColumns=32																															
inDegrees=no																															
																															
"Units are S.I. units (second, meters, Newtons, ...)"																															
"If the header above contains a line with 'inDegrees', this indicates whether rotational values are in degrees (yes) or radians (no)."																															
																															
endheader																															
time	pelvis_tilt	pelvis_list	pelvis_rotation	pelvis_tx	pelvis_ty	pelvis_tz	hip_flexion_r	hip_adduction_r	hip_rotation_r	knee_angle_r	ankle_angle_r	subtalar_angle_r	mtp_angle_r	hip_flexion_l	hip_adduction_l	hip_rotation_l	knee_angle_l	ankle_angle_l	subtalar_angle_l	mtp_angle_l	lumbar_extension	lumbar_bending	lumbar_rotation	arm_flex_r	arm_add_r	arm_rot_r	elbow_flex_r	arm_flex_l	arm_add_l	arm_rot_l	elbow_flex_l
0.713071428	-0.015589055	0.154149952	-0.135873959	0.703596822	0.909260198	0.480216057	-0.011421992	-0.244167189	-0.041295243	1.058004383	-0.319710877	-0.210943564	-0.114089837	0.480698193	0.196089509	-0.04770655	0.583174976	0.141196232	-0.37538064	0.010910919	-0.079222729	-0.142990438	0.099641767	0.237677326	-0.267341829	0.002896226	0.915105667	-0.132277713	-0.206811766	0.256298916	0.319609399
0.723714286	-0.012240949	0.161591248	-0.139936277	0.703949276	0.910615446	0.479220887	0.030991181	-0.251922158	-0.024037286	1.118423478	-0.32665646	-0.221197931	-0.039845653	0.463768725	0.206250919	-0.054054632	0.587370108	0.15131174	-0.371650019	0.021366682	-0.080958658	-0.149535706	0.10123374	0.219583073	-0.262741447	0.005197146	0.887888906	-0.129074161	-0.202385631	0.256393266	0.320437248
0.734357143	-0.010315228	0.16528213	-0.142184974	0.70389286	0.912166678	0.478361084	0.073554703	-0.252154037	-0.005572312	1.171587092	-0.313733717	-0.225620361	0.012910139	0.446841637	0.212051015	-0.059159546	0.590120311	0.161002438	-0.363187438	0.032475036	-0.082605545	-0.152247731	0.10113465	0.200827893	-0.258166984	0.007836315	0.858828284	-0.124643649	-0.198098655	0.255996751	0.323301272
0.745	-0.009672436	0.165856873	-0.142530992	0.703480552	0.913916865	0.477603717	0.115847603	-0.246272262	0.012627022	1.217034325	-0.286968408	-0.22670151	0.047513939	0.42983703	0.214276082	-0.06281484	0.591514603	0.17085375	-0.350563756	0.042565356	-0.084139048	-0.151789046	0.099183849	0.181671427	-0.25371254	0.010501004	0.828375424	-0.119144484	-0.19418699	0.255136467	0.328309106
0.755642857	-0.010167712	0.163994452	-0.140897767	0.702764314	0.915866056	0.476913713	0.157480268	-0.235792792	0.02909023	1.254334353	-0.252786102	-0.226926936	0.067905019	0.412707555	0.213768603	-0.064812994	0.591682585	0.18155424	-0.334364787	0.049895971	-0.085532723	-0.148868009	0.095227697	0.162379211	-0.249473502	0.012865428	0.79699082	-0.112733998	-0.190888544	0.253831794	0.335570092
0.766285714	-0.01163576	0.160345103	-0.137284886	0.701789435	0.918004811	0.476260531	0.198164475	-0.222210029	0.042761229	1.283221404	-0.215904268	-0.227629471	0.07738492	0.395307772	0.211311056	-0.065049008	0.590488562	0.193352251	-0.315215526	0.05345922	-0.086779377	-0.144161924	0.089190165	0.143176629	-0.245499612	0.014670871	0.765128414	-0.105560448	-0.188412469	0.252039699	0.345194465
0.776928571	-0.013870406	0.155501602	-0.131844207	0.700587871	0.920304712	0.475622685	0.237814745	-0.206975268	0.053412585	1.30375974	-0.17762486	-0.22783696	0.077979981	0.377296095	0.207565923	-0.063622882	0.587266353	0.205615859	-0.293819313	0.053715172	-0.087910321	-0.138285995	0.08115042	0.124208769	-0.241749342	0.015792723	0.733229054	-0.097753935	-0.186910407	0.249592346	0.357294245
0.787571428	-0.016660926	0.150049181	-0.124746009	0.699189959	0.922735024	0.474979812	0.276369983	-0.191533079	0.060916135	1.316053205	-0.138843752	-0.226306097	0.071566698	0.358308313	0.203180468	-0.060659264	0.581287741	0.21760935	-0.270888374	0.051299618	-0.088961247	-0.131847277	0.071206524	0.105611193	-0.238170302	0.016122725	0.701731853	-0.089442292	-0.186526962	0.246307885	0.371981429
0.798214286	-0.019869308	0.144410955	-0.116229166	0.697619828	0.925250908	0.474322154	0.313828498	-0.176958953	0.065296011	1.320275283	-0.100547032	-0.222524	0.060464843	0.338146209	0.198584546	-0.056341432	0.572078211	0.228821072	-0.247034088	0.047091366	-0.089921487	-0.125277484	0.059555773	0.087526409	-0.234710019	0.015643589	0.67103625	-0.080728407	-0.187361495	0.242198267	0.389313515
0.808857143	-0.023522821	0.138641509	-0.106688504	0.695887477	0.927775465	0.473664054	0.350323618	-0.16348942	0.066922538	1.316757772	-0.063925886	-0.217638165	0.048001815	0.316988912	0.193713812	-0.050985944	0.559739955	0.239248689	-0.222638609	0.042521647	-0.090674992	-0.118609748	0.046621038	0.070112722	-0.23131584	0.014544807	0.6414515	-0.071658465	-0.18941052	0.237715981	0.409224121
0.8195	-0.027667378	0.132754183	-0.096540354	0.694000654	0.930228134	0.47302298	0.386001991	-0.151248966	0.066229239	1.305855062	-0.030244863	-0.212928046	0.037587104	0.295068998	0.18845295	-0.044919067	0.544463313	0.248960352	-0.198071082	0.039041205	-0.091096231	-0.111833817	0.032855955	0.053531531	-0.227935551	0.013040372	0.6132702	-0.062264717	-0.19265523	0.233358122	0.431626954
0.830142857	-0.032261696	0.126963498	-0.086200207	0.69196083	0.932544312	0.472412136	0.42089916	-0.140443548	0.063968208	1.287936211	-0.001703231	-0.207648627	0.031443246	0.272646096	0.183046486	-0.038286236	0.526613791	0.258025985	-0.174088523	0.036921005	-0.091165229	-0.105182416	0.018705683	0.037963248	-0.224526711	0.011259571	0.586698076	-0.052452873	-0.197053898	0.229283698	0.456377863
0.840785714	-0.037184675	0.121664112	-0.076078204	0.689764419	0.934674571	0.471840812	0.454937351	-0.131346823	0.061168081	1.263380067	0.018805991	-0.199251975	0.030591101	0.249999025	0.178061894	-0.031071675	0.506710047	0.266487664	-0.151791403	0.03535538	-0.090959147	-0.099106496	0.00460323	0.023599974	-0.221057175	0.009251674	0.56185648	-0.042016538	-0.202543036	0.225336926	0.483277464
0.851428571	-0.042371771	0.117023407	-0.066472597	0.687428428	0.936572972	0.471320841	0.487828244	-0.124011867	0.058287516	1.232464672	0.03289882	-0.187709785	0.034020041	0.227256429	0.17367933	-0.02347728	0.48498874	0.273681542	-0.13174887	0.034367966	-0.090499801	-0.093798744	-9.12E-03	0.010483379	-0.217521814	0.007059364	0.538805059	-0.030920519	-0.209055674	0.221450281	0.512109536
0.862071428	-0.047822245	0.113037591	-0.057502492	0.68497587	0.93819567	0.470862198	0.519137764	-0.118260285	0.055434615	1.195173344	0.043634995	-0.174547605	0.039260942	0.204596326	0.169867375	-0.015615988	0.461840254	0.279116813	-0.114127781	0.033758113	-0.089773663	-0.089268943	-0.022301159	-0.001413131	-0.213957043	0.004650945	0.517592895	-0.019209867	-0.216573007	0.217590554	0.542732782
